<svg width="1437" height="754" viewBox="0 0 1437 754" fill="none" xmlns="http://www.w3.org/2000/svg">
<g clip-path="url(#clip0_1_1876)">
<g opacity="0.4">
<path d="M305.364 448.211V515.495L224.636 549.006L143.909 515.495V448.211L224.636 414.7L305.364 448.211ZM144.636 515.234L224.636 548.483L304.636 515.234V448.473L224.636 415.224L144.636 448.473V515.234Z" fill="url(#paint0_linear_1_1876)"/>
</g>
<g opacity="0.4">
<path d="M385.727 147.135V214.419L305 247.93L224.272 214.419V147.135L305 113.624L385.727 147.135ZM225 214.157L305 247.407L385 214.157V147.397L305 114.148L225 147.397V214.157Z" fill="url(#paint1_linear_1_1876)"/>
</g>
<g opacity="0.4">
<path d="M305.364 46.601V113.885L224.636 147.396L143.909 113.885V46.601L224.636 13.0898L305.364 46.601ZM144.636 113.623L224.636 146.872L304.636 113.623V46.8628L224.636 13.6135L144.636 46.8628V113.623Z" fill="url(#paint2_linear_1_1876)"/>
</g>
<g opacity="0.4">
<path d="M466.455 46.601V113.885L385.727 147.396L305 113.885V46.601L385.727 13.0898L466.455 46.601ZM305.727 113.623L385.727 146.872L465.727 113.623V46.8628L385.727 13.6135L305.727 46.8628V113.623Z" fill="url(#paint3_linear_1_1876)"/>
</g>
<g opacity="0.4">
<path d="M627.545 46.601V113.885L546.818 147.396L466.091 113.885V46.601L546.818 13.0898L627.545 46.601ZM466.454 113.623L546.454 146.872L626.454 113.623V46.8628L546.454 13.6135L466.454 46.8628V113.623Z" fill="url(#paint4_linear_1_1876)"/>
</g>
<g opacity="0.4">
<path d="M788.273 46.601V113.885L707.546 147.396L626.818 113.885V46.601L707.546 13.0898L788.273 46.601ZM627.546 113.623L707.546 146.872L787.546 113.623V46.8628L707.546 13.6135L627.546 46.8628V113.623Z" fill="url(#paint5_linear_1_1876)"/>
</g>
<g opacity="0.4">
<path d="M43.5459 416.794V413.652L92.6368 393.232V307.621L43.5459 287.2V284.059L96.2732 306.05V394.802L43.5459 416.794Z" fill="url(#paint6_linear_1_1876)"/>
</g>
<g opacity="0.4">
<path d="M306.091 306.051V394.803L199.182 439.048L92.2725 394.803V306.051L199.182 261.806L306.091 306.051ZM96.2725 393.232L199.182 436.168L302.454 393.232V307.622L199.182 264.686L95.9088 307.622V393.232H96.2725Z" fill="url(#paint7_linear_1_1876)"/>
</g>
<g opacity="0.4">
<path d="M515.909 306.051V394.803L409 439.048L302.091 394.803V306.051L409 261.806L515.909 306.051ZM306.091 393.232L409.364 436.168L512.273 393.232V307.622L409 264.686L305.727 307.622L306.091 393.232Z" fill="url(#paint8_linear_1_1876)"/>
</g>
<g opacity="0.4">
<path d="M94.455 308.407L43.5459 287.2V284.059L94.455 305.265L197.364 262.329V176.718L94.455 133.782L43.5459 154.988V152.109L94.455 130.902L201 175.147V263.9L94.455 308.407Z" fill="url(#paint9_linear_1_1876)"/>
</g>
<g opacity="0.4">
<path d="M410.818 175.147V263.9L303.909 308.145L197 263.9V175.147L303.909 130.902L410.818 175.147ZM201 262.329L304.273 305.265L407.182 262.329V176.718L303.909 133.782L200.636 176.718L201 262.329Z" fill="url(#paint10_linear_1_1876)"/>
</g>
<g opacity="0.4">
<path d="M620.637 175.147V263.9L513.727 308.145L406.818 263.9V175.147L513.727 130.902L620.637 175.147ZM410.818 262.329L514.091 305.265L617 262.329V176.718L513.727 133.782L410.455 176.718V262.329H410.818Z" fill="url(#paint11_linear_1_1876)"/>
</g>
<g opacity="0.4">
<path d="M43.5459 154.989V152.109L92.6368 131.689V45.8163L43.5459 25.3955V22.5156L96.2732 44.5073V133.259L43.5459 154.989Z" fill="url(#paint12_linear_1_1876)"/>
</g>
<g opacity="0.4">
<path d="M306.091 44.507V133.259L199.182 177.504L92.2725 133.259V44.507L199.182 0L306.091 44.507ZM96.2725 131.688L199.182 174.363L302.454 131.426V45.816L199.182 3.14167L95.9088 46.0778V131.688H96.2725Z" fill="url(#paint13_linear_1_1876)"/>
</g>
<g opacity="0.4">
<path d="M515.909 44.5069V133.259L409 177.504L302.091 133.259V44.5069L409 0.261719L515.909 44.5069ZM306.091 131.688L409.364 174.624L512.636 131.688V46.0777L409.364 3.14158L306.091 46.0777V131.688Z" fill="url(#paint14_linear_1_1876)"/>
</g>
<path opacity="0.4" d="M305.364 511.307C308.637 511.307 311.182 513.139 311.182 515.496C311.182 517.852 308.637 519.684 305.364 519.684C302.091 519.684 299.546 517.852 299.546 515.496C299.546 513.139 302.091 511.307 305.364 511.307Z" fill="url(#paint15_linear_1_1876)"/>
<path opacity="0.4" d="M788.273 648.492C788.636 648.492 789.363 648.754 789.363 649.278C789.363 649.539 789 650.063 788.273 650.063C787.909 650.063 787.182 649.801 787.182 649.278C787.182 648.754 787.909 648.492 788.273 648.492Z" fill="url(#paint16_linear_1_1876)"/>
<path opacity="0.4" d="M224.636 420.46C220.636 420.46 217.363 418.103 217.363 415.223C217.363 412.344 220.636 409.987 224.636 409.987C228.636 409.987 231.909 412.344 231.909 415.223C231.909 418.103 228.636 420.46 224.636 420.46Z" fill="url(#paint17_linear_1_1876)"/>
<path opacity="0.4" d="M144.273 451.876C146.884 451.876 149 450.353 149 448.473C149 446.593 146.884 445.069 144.273 445.069C141.662 445.069 139.546 446.593 139.546 448.473C139.546 450.353 141.662 451.876 144.273 451.876Z" fill="url(#paint18_linear_1_1876)"/>
<path opacity="0.4" d="M144.273 512.877C146.091 512.877 147.909 513.924 147.909 515.495C147.909 516.804 146.455 518.113 144.273 518.113C142.091 518.113 140.637 517.066 140.637 515.495C140.637 513.924 142.091 512.877 144.273 512.877Z" fill="url(#paint19_linear_1_1876)"/>
<path opacity="0.4" d="M224.637 556.599C230.662 556.599 235.546 553.083 235.546 548.745C235.546 544.407 230.662 540.891 224.637 540.891C218.612 540.891 213.728 544.407 213.728 548.745C213.728 553.083 218.612 556.599 224.637 556.599Z" fill="url(#paint20_linear_1_1876)"/>
<path opacity="0.4" d="M305.363 441.928C310.454 441.928 314.454 444.808 314.454 448.473C314.454 452.138 310.454 455.018 305.363 455.018C300.272 455.018 296.272 452.138 296.272 448.473C296.272 444.808 300.272 441.928 305.363 441.928Z" fill="url(#paint21_linear_1_1876)"/>
<path opacity="0.4" d="M224.636 220.441C219.909 220.441 216.272 217.822 216.272 214.419C216.272 211.016 219.909 208.397 224.636 208.397C229.363 208.397 233 211.016 233 214.419C233 217.822 229.363 220.441 224.636 220.441Z" fill="url(#paint22_linear_1_1876)"/>
<path opacity="0.4" d="M144.273 248.192C144.674 248.192 144.999 247.957 144.999 247.668C144.999 247.379 144.674 247.145 144.273 247.145C143.871 247.145 143.546 247.379 143.546 247.668C143.546 247.957 143.871 248.192 144.273 248.192Z" fill="url(#paint23_linear_1_1876)"/>
<path opacity="0.4" d="M144.272 319.664C148.088 319.664 151.181 317.437 151.181 314.69C151.181 311.943 148.088 309.716 144.272 309.716C140.457 309.716 137.363 311.943 137.363 314.69C137.363 317.437 140.457 319.664 144.272 319.664Z" fill="url(#paint24_linear_1_1876)"/>
<path opacity="0.4" d="M224.637 352.391C221.364 352.391 218.818 350.558 218.818 348.202C218.818 345.845 221.364 344.013 224.637 344.013C227.909 344.013 230.455 345.845 230.455 348.202C230.455 350.296 227.909 352.391 224.637 352.391Z" fill="url(#paint25_linear_1_1876)"/>
<path opacity="0.4" d="M380.272 214.157C380.272 212.062 382.454 210.229 385.727 210.229C388.636 210.229 391.182 211.8 391.182 214.157C391.182 216.251 389 218.084 385.727 218.084C382.818 218.084 380.272 216.251 380.272 214.157Z" fill="url(#paint26_linear_1_1876)"/>
<path opacity="0.4" d="M305.364 240.338C311.182 240.338 315.545 243.741 315.545 247.668C315.545 251.857 310.818 254.999 305.364 254.999C299.545 254.999 295.182 251.596 295.182 247.668C294.818 243.48 299.545 240.338 305.364 240.338Z" fill="url(#paint27_linear_1_1876)"/>
<path opacity="0.4" d="M385.727 141.113C390.455 141.113 394.455 143.993 394.455 147.397C394.455 150.8 390.455 153.68 385.727 153.68C381 153.68 377 150.8 377 147.397C377 143.731 381 141.113 385.727 141.113Z" fill="url(#paint28_linear_1_1876)"/>
<path opacity="0.4" d="M550.818 147.397C550.818 148.967 549 150.276 546.818 150.276C544.637 150.276 542.818 148.967 542.818 147.397C542.818 145.826 544.637 144.517 546.818 144.517C549 144.255 550.818 145.564 550.818 147.397Z" fill="url(#paint29_linear_1_1876)"/>
<path opacity="0.4" d="M627.182 108.126C631.545 108.126 635.182 110.744 635.182 113.886C635.182 117.027 631.545 119.645 627.182 119.645C622.818 119.645 619.182 117.027 619.182 113.886C619.182 110.744 622.818 108.126 627.182 108.126Z" fill="url(#paint30_linear_1_1876)"/>
<path opacity="0.4" d="M715.545 147.396C715.545 150.538 711.909 152.894 707.909 152.894C703.909 152.894 700.272 150.276 700.272 147.396C700.272 144.255 703.909 141.898 707.909 141.898C711.909 141.898 715.545 144.255 715.545 147.396Z" fill="url(#paint31_linear_1_1876)"/>
<path opacity="0.4" d="M788.273 107.34C793.363 107.34 797.363 110.22 797.363 113.885C797.363 117.55 793.363 120.43 788.273 120.43C783.182 120.43 779.182 117.55 779.182 113.885C779.182 110.22 783.182 107.34 788.273 107.34Z" fill="url(#paint32_linear_1_1876)"/>
<path opacity="0.4" d="M224.637 17.0171C227.448 17.0171 229.728 15.3761 229.728 13.3518C229.728 11.3275 227.448 9.68652 224.637 9.68652C221.825 9.68652 219.546 11.3275 219.546 13.3518C219.546 15.3761 221.825 17.0171 224.637 17.0171Z" fill="url(#paint33_linear_1_1876)"/>
<path opacity="0.4" d="M144.272 49.7431C146.482 49.7431 148.272 48.4538 148.272 46.8633C148.272 45.2728 146.482 43.9834 144.272 43.9834C142.063 43.9834 140.272 45.2728 140.272 46.8633C140.272 48.4538 142.063 49.7431 144.272 49.7431Z" fill="url(#paint34_linear_1_1876)"/>
<path opacity="0.4" d="M142.091 113.885C142.091 113.1 142.818 112.576 143.909 112.576C145 112.576 145.727 113.1 145.727 113.885C145.727 114.671 145 115.194 143.909 115.194C143.182 115.194 142.091 114.671 142.091 113.885Z" fill="url(#paint35_linear_1_1876)"/>
<path opacity="0.4" d="M224.636 153.418C229.255 153.418 233 150.722 233 147.397C233 144.071 229.255 141.375 224.636 141.375C220.017 141.375 216.272 144.071 216.272 147.397C216.272 150.722 220.017 153.418 224.636 153.418Z" fill="url(#paint36_linear_1_1876)"/>
<path opacity="0.4" d="M298.454 46.863C298.454 44.2449 301.363 41.8887 305.363 41.8887C309 41.8887 312.272 43.9831 312.272 46.863C312.272 49.481 309.363 51.8373 305.363 51.8373C301.363 51.8373 298.454 49.481 298.454 46.863Z" fill="url(#paint37_linear_1_1876)"/>
<path opacity="0.4" d="M309.727 113.886C309.727 115.719 307.545 117.289 305 117.289C302.454 117.289 300.272 115.719 300.272 113.886C300.272 112.053 302.454 110.482 305 110.482C307.909 110.482 309.727 112.053 309.727 113.886Z" fill="url(#paint38_linear_1_1876)"/>
<path opacity="0.4" d="M466.09 116.504C463.909 116.504 462.454 115.195 462.454 113.886C462.454 112.315 464.272 111.268 466.09 111.268C468.272 111.268 469.727 112.577 469.727 113.886C470.09 115.456 468.272 116.504 466.09 116.504Z" fill="url(#paint39_linear_1_1876)"/>
<path opacity="0.4" d="M540.272 13.3521C540.272 10.7341 543.182 8.63965 546.818 8.63965C550.454 8.63965 553.363 10.7341 553.363 13.3521C553.363 15.9702 550.454 18.0646 546.818 18.0646C543.182 18.0646 540.272 15.9702 540.272 13.3521Z" fill="url(#paint40_linear_1_1876)"/>
<path opacity="0.4" d="M466.091 53.4086C461 53.4086 457 50.5288 457 46.8635C457 43.1982 461 40.3184 466.091 40.3184C471.182 40.3184 475.182 43.1982 475.182 46.8635C475.545 50.5288 471.182 53.4086 466.091 53.4086Z" fill="url(#paint41_linear_1_1876)"/>
<path opacity="0.4" d="M788.272 39.7949C793.727 39.7949 798.09 42.9366 798.09 46.8637C798.09 50.7908 793.727 53.9324 788.272 53.9324C782.818 53.9324 778.454 50.7908 778.454 46.8637C778.454 42.9366 782.818 39.7949 788.272 39.7949Z" fill="url(#paint42_linear_1_1876)"/>
<path opacity="0.4" d="M379.546 13.3521C379.546 10.9958 382.455 8.90137 385.728 8.90137C389 8.90137 391.91 10.9958 391.91 13.3521C391.91 15.7083 389 17.8028 385.728 17.8028C382.455 17.8028 379.546 15.9701 379.546 13.3521Z" fill="url(#paint43_linear_1_1876)"/>
<path opacity="0.4" d="M627.182 54.4552C633.006 54.4552 637.728 51.056 637.728 46.8629C637.728 42.6697 633.006 39.2705 627.182 39.2705C621.358 39.2705 616.637 42.6697 616.637 46.8629C616.637 51.056 621.358 54.4552 627.182 54.4552Z" fill="url(#paint44_linear_1_1876)"/>
<path opacity="0.4" d="M707.909 16.2324C710.118 16.2324 711.909 14.943 711.909 13.3525C711.909 11.762 710.118 10.4727 707.909 10.4727C705.7 10.4727 703.909 11.762 703.909 13.3525C703.909 14.943 705.7 16.2324 707.909 16.2324Z" fill="url(#paint45_linear_1_1876)"/>
<g opacity="0.4">
<path d="M56.6368 757.142V686.454L43.5459 680.695V680.171L57.3641 685.931H57.7277V757.142H56.6368Z" fill="url(#paint46_linear_1_1876)"/>
</g>
<g opacity="0.4">
<path d="M57.3641 441.404L43.5459 435.644V434.859L57.3641 440.619L155.182 400.039V318.617L57.3641 278.037L43.5459 283.797V283.012L57.0004 277.514L57.3641 277.252L155.546 318.355H155.91V400.301L57.3641 441.404Z" fill="url(#paint47_linear_1_1876)"/>
</g>
<g opacity="0.4">
<path d="M43.5459 283.797V283.011L56.6368 277.513V196.092L43.5459 190.594V189.809L57.3641 195.83H57.7277V277.775L43.5459 283.797Z" fill="url(#paint48_linear_1_1876)"/>
</g>
<g opacity="0.4">
<path d="M254.091 195.831L254.455 278.038L155.909 318.88H155.546L57.0004 278.038H56.6367V196.093L155.182 154.989H155.546L254.091 195.831ZM57.7276 277.514L155.546 318.094L253.364 277.514V196.093L155.546 155.513L57.7276 196.093V277.514Z" fill="url(#paint49_linear_1_1876)"/>
</g>
<g opacity="0.4">
<path d="M450.455 195.831L450.818 278.038L352.273 318.88H351.909L253.364 278.038H253V196.093L351.909 154.989H352.273L450.455 195.831ZM254.091 277.514L351.909 318.094L449.727 277.514V196.093L351.909 155.513L254.091 196.093V277.514Z" fill="url(#paint50_linear_1_1876)"/>
</g>
<g opacity="0.4">
<path d="M647.182 195.831L647.546 278.038L549 318.88H548.637L450.091 278.038H449.728V196.093L548.273 154.989H548.637L647.182 195.831ZM450.818 277.514L548.637 318.094L646.455 277.514V196.093L548.637 155.513L450.818 196.093V277.514Z" fill="url(#paint51_linear_1_1876)"/>
</g>
<g opacity="0.4">
<path d="M57.3641 196.354L43.5459 190.595V189.809L57.3641 195.569L155.182 154.989V73.5674L57.3641 32.9876L43.5459 38.7473V37.9619L57.0004 32.464L57.3641 32.2021L155.546 73.3056H155.91V155.251L57.3641 196.354Z" fill="url(#paint52_linear_1_1876)"/>
</g>
<g opacity="0.4">
<path d="M352.273 73.3054L352.637 155.512L254.091 196.354H253.727L155.182 155.512H154.818V73.5673L253.364 32.7256H253.727L352.273 73.3054ZM155.909 154.989L253.727 195.569L351.546 154.989V73.5673L253.727 32.9874L155.909 73.5673V154.989Z" fill="url(#paint53_linear_1_1876)"/>
</g>
<g opacity="0.4">
<path d="M548.636 73.3055L549 155.512L450.454 196.354H450.091L351.545 155.512H351.182V73.5673L450.091 32.4639H450.454L548.636 73.3055ZM352.273 154.989L450.091 195.569L548.273 154.989V73.5673L450.454 32.9875L352.636 73.5673V154.989H352.273Z" fill="url(#paint54_linear_1_1876)"/>
</g>
<g opacity="0.4">
<path d="M43.5459 626.763V623.097L53.7277 618.908V514.186L43.5459 509.997V506.332L58.0913 512.354V620.741L43.5459 626.763Z" fill="url(#paint55_linear_1_1876)"/>
</g>
<g opacity="0.4">
<path d="M314.455 512.354V620.741L184.273 674.935L53.7275 620.741V512.354L183.909 458.16L314.455 512.354ZM58.0912 618.909L183.909 671.27L309.728 618.909V514.187L183.909 461.825L58.0912 514.187V618.909Z" fill="url(#paint56_linear_1_1876)"/>
</g>
<g opacity="0.4">
<path d="M55.9095 515.233L43.5459 509.997V506.332L55.9095 511.306L181.728 459.207V354.484L55.9095 302.123L43.5459 307.359V303.694L55.9095 298.458L186.091 352.652V461.039L55.9095 515.233Z" fill="url(#paint57_linear_1_1876)"/>
</g>
<g opacity="0.4">
<path d="M442.455 352.652V461.039L311.909 515.233L181.728 461.039V352.652L311.909 298.458L442.455 352.652ZM186.091 459.207L311.909 511.568L437.728 459.207V354.484L311.909 302.123L186.091 354.484V459.207Z" fill="url(#paint58_linear_1_1876)"/>
</g>
<g opacity="0.4">
<path d="M43.5459 307.359V303.694L53.7277 299.505V194.783L43.5459 190.594V186.929L58.0913 192.95V301.338L43.5459 307.359Z" fill="url(#paint59_linear_1_1876)"/>
</g>
<g opacity="0.4">
<path d="M314.454 192.951V301.338L184.273 355.532L54.0908 301.338V192.951L184.273 138.757L314.454 192.951ZM58.0908 299.505L183.909 351.867L309.727 299.505V194.783L183.909 142.422L58.0908 194.783V299.505Z" fill="url(#paint60_linear_1_1876)"/>
</g>
<path opacity="0.4" d="M57.3635 678.076C63.5454 678.076 68.6363 681.741 68.6363 686.192C68.6363 690.643 63.5454 694.308 57.3635 694.308C51.1817 694.308 46.0908 690.643 46.0908 686.192C46.0908 681.741 51.1817 678.076 57.3635 678.076Z" fill="url(#paint61_linear_1_1876)"/>
<path opacity="0.4" d="M149 400.3C149 397.682 151.909 395.588 155.545 395.588C159.182 395.588 162.091 397.682 162.091 400.3C162.091 402.918 159.182 405.013 155.545 405.013C151.909 404.751 149 402.657 149 400.3Z" fill="url(#paint62_linear_1_1876)"/>
<path opacity="0.4" d="M57.3636 431.979C64.2727 431.979 69.7273 435.907 69.7273 440.881C69.7273 445.855 64.2727 449.782 57.3636 449.782C50.4545 449.782 45 445.855 45 440.881C45 435.907 50.4545 431.979 57.3636 431.979Z" fill="url(#paint63_linear_1_1876)"/>
<path opacity="0.4" d="M155.545 310.764C161.364 310.764 166.091 314.167 166.091 318.356C166.091 322.545 161.364 325.948 155.545 325.948C149.727 325.948 145 322.545 145 318.356C145 314.167 149.727 310.764 155.545 310.764Z" fill="url(#paint64_linear_1_1876)"/>
<path opacity="0.4" d="M357 318.617C357 320.712 354.818 322.283 351.909 322.283C349 322.283 346.818 320.712 346.818 318.617C346.818 316.523 349 314.952 351.909 314.952C354.818 314.952 357 316.523 357 318.617Z" fill="url(#paint65_linear_1_1876)"/>
<path opacity="0.4" d="M450.455 284.845C455.877 284.845 460.273 281.68 460.273 277.776C460.273 273.872 455.877 270.707 450.455 270.707C445.032 270.707 440.637 273.872 440.637 277.776C440.637 281.68 445.032 284.845 450.455 284.845Z" fill="url(#paint66_linear_1_1876)"/>
<path opacity="0.4" d="M558.091 318.617C558.091 322.283 553.727 325.424 548.636 325.424C543.545 325.424 539.182 322.283 539.182 318.617C539.182 314.952 543.545 311.811 548.636 311.811C553.727 311.811 558.091 314.69 558.091 318.617Z" fill="url(#paint67_linear_1_1876)"/>
<path opacity="0.4" d="M646.818 285.63C652.843 285.63 657.727 282.114 657.727 277.776C657.727 273.438 652.843 269.922 646.818 269.922C640.793 269.922 635.909 273.438 635.909 277.776C635.909 282.114 640.793 285.63 646.818 285.63Z" fill="url(#paint68_linear_1_1876)"/>
<path opacity="0.4" d="M49 196.093C49 192.689 52.6364 190.071 57.3636 190.071C62.0909 190.071 65.7273 192.689 65.7273 196.093C65.7273 199.496 62.0909 202.114 57.3636 202.114C52.6364 201.853 49 199.234 49 196.093Z" fill="url(#paint69_linear_1_1876)"/>
<path opacity="0.4" d="M62.818 277.776C62.818 280.132 60.2726 281.965 56.9998 281.965C53.7271 281.965 51.1816 280.132 51.1816 277.776C51.1816 275.42 53.7271 273.587 56.9998 273.587C60.2726 273.587 62.818 275.42 62.818 277.776Z" fill="url(#paint70_linear_1_1876)"/>
<path opacity="0.4" d="M253.727 281.179C256.338 281.179 258.455 279.655 258.455 277.776C258.455 275.896 256.338 274.372 253.727 274.372C251.116 274.372 249 275.896 249 277.776C249 279.655 251.116 281.179 253.727 281.179Z" fill="url(#paint71_linear_1_1876)"/>
<path opacity="0.4" d="M344.272 155.251C344.272 152.109 347.909 149.753 351.909 149.753C356.272 149.753 359.545 152.371 359.545 155.251C359.545 158.131 355.909 160.749 351.909 160.749C347.545 160.749 344.272 158.131 344.272 155.251Z" fill="url(#paint72_linear_1_1876)"/>
<path opacity="0.4" d="M253.727 203.947C247.545 203.947 242.454 200.282 242.454 195.831C242.454 191.38 247.545 187.715 253.727 187.715C259.909 187.715 265 191.38 265 195.831C265 200.282 259.909 203.947 253.727 203.947Z" fill="url(#paint73_linear_1_1876)"/>
<path opacity="0.4" d="M646.818 204.732C653.446 204.732 658.818 200.864 658.818 196.093C658.818 191.321 653.446 187.453 646.818 187.453C640.191 187.453 634.818 191.321 634.818 196.093C634.818 200.864 640.191 204.732 646.818 204.732Z" fill="url(#paint74_linear_1_1876)"/>
<path opacity="0.4" d="M155.545 160.487C159.562 160.487 162.818 158.143 162.818 155.251C162.818 152.359 159.562 150.015 155.545 150.015C151.529 150.015 148.272 152.359 148.272 155.251C148.272 158.143 151.529 160.487 155.545 160.487Z" fill="url(#paint75_linear_1_1876)"/>
<path opacity="0.4" d="M155.545 64.666C162.454 64.666 167.909 68.5931 167.909 73.5674C167.909 78.5417 162.454 82.4688 155.545 82.4688C148.636 82.4688 143.182 78.5417 143.182 73.5674C143.182 68.5931 148.636 64.666 155.545 64.666Z" fill="url(#paint76_linear_1_1876)"/>
<path opacity="0.4" d="M450.455 205.255C457.484 205.255 463.182 201.153 463.182 196.092C463.182 191.031 457.484 186.929 450.455 186.929C443.426 186.929 437.728 191.031 437.728 196.092C437.728 201.153 443.426 205.255 450.455 205.255Z" fill="url(#paint77_linear_1_1876)"/>
<path opacity="0.4" d="M543.909 155.251C543.909 153.418 546.091 151.848 548.636 151.848C551.182 151.848 553.364 153.418 553.364 155.251C553.364 157.084 551.182 158.655 548.636 158.655C546.091 158.655 543.909 157.084 543.909 155.251Z" fill="url(#paint78_linear_1_1876)"/>
<path opacity="0.4" d="M646.818 39.5328C652.039 39.5328 656.272 36.4853 656.272 32.7259C656.272 28.9665 652.039 25.9189 646.818 25.9189C641.596 25.9189 637.363 28.9665 637.363 32.7259C637.363 36.4853 641.596 39.5328 646.818 39.5328Z" fill="url(#paint79_linear_1_1876)"/>
<path opacity="0.4" d="M548.637 83.7783C540.637 83.7783 534.455 79.0658 534.455 73.5678C534.455 67.8081 541.001 63.3574 548.637 63.3574C556.637 63.3574 562.819 68.0699 562.819 73.5678C562.819 79.0658 556.637 83.7783 548.637 83.7783Z" fill="url(#paint80_linear_1_1876)"/>
<path opacity="0.4" d="M57.3641 43.9831C51.1823 43.9831 46.0914 41.6268 43.5459 37.9615V27.4893C46.0914 23.824 51.1823 21.4678 57.3641 21.4678C66.0914 21.4678 73.0004 26.4421 73.0004 32.7254C73.0004 38.7469 65.7277 43.9831 57.3641 43.9831Z" fill="url(#paint81_linear_1_1876)"/>
<path opacity="0.4" d="M253.727 39.5328C248.636 39.5328 244.272 36.3912 244.272 32.7259C244.272 29.0606 248.636 25.9189 253.727 25.9189C258.818 25.9189 263.182 29.0606 263.182 32.7259C263.182 36.3912 258.818 39.5328 253.727 39.5328Z" fill="url(#paint82_linear_1_1876)"/>
<path opacity="0.4" d="M351.909 65.7129C357.727 65.7129 362.818 69.1164 362.818 73.5671C362.818 77.7559 358.091 81.4212 351.909 81.4212C346.091 81.4212 341 78.0178 341 73.5671C341.364 69.1164 346.091 65.7129 351.909 65.7129Z" fill="url(#paint83_linear_1_1876)"/>
<path opacity="0.4" d="M462.455 32.7256C462.455 37.6999 457 41.627 450.091 41.627C443.182 41.627 437.728 37.6999 437.728 32.7256C437.728 27.7513 443.182 23.8242 450.091 23.8242C457 23.8242 462.455 27.7513 462.455 32.7256Z" fill="url(#paint84_linear_1_1876)"/>
</g>
<defs>
<linearGradient id="paint0_linear_1_1876" x1="-682.898" y1="1490.69" x2="-185.97" y2="425.007" gradientUnits="userSpaceOnUse">
<stop stop-color="#52BBE8"/>
<stop offset="0.196" stop-color="#69C3EB"/>
<stop offset="0.6037" stop-color="#A3D8F1"/>
<stop offset="1" stop-color="#E1EFF8"/>
</linearGradient>
<linearGradient id="paint1_linear_1_1876" x1="-387.981" y1="951.112" x2="108.947" y2="-114.573" gradientUnits="userSpaceOnUse">
<stop stop-color="#52BBE8"/>
<stop offset="0.196" stop-color="#69C3EB"/>
<stop offset="0.6037" stop-color="#A3D8F1"/>
<stop offset="1" stop-color="#E1EFF8"/>
</linearGradient>
<linearGradient id="paint2_linear_1_1876" x1="-428.382" y1="806.154" x2="68.547" y2="-259.532" gradientUnits="userSpaceOnUse">
<stop stop-color="#52BBE8"/>
<stop offset="0.196" stop-color="#69C3EB"/>
<stop offset="0.6037" stop-color="#A3D8F1"/>
<stop offset="1" stop-color="#E1EFF8"/>
</linearGradient>
<linearGradient id="paint3_linear_1_1876" x1="-219.686" y1="753.235" x2="277.243" y2="-312.45" gradientUnits="userSpaceOnUse">
<stop stop-color="#52BBE8"/>
<stop offset="0.196" stop-color="#69C3EB"/>
<stop offset="0.6037" stop-color="#A3D8F1"/>
<stop offset="1" stop-color="#E1EFF8"/>
</linearGradient>
<linearGradient id="paint4_linear_1_1876" x1="-10.9902" y1="700.317" x2="485.939" y2="-365.369" gradientUnits="userSpaceOnUse">
<stop stop-color="#52BBE8"/>
<stop offset="0.196" stop-color="#69C3EB"/>
<stop offset="0.6037" stop-color="#A3D8F1"/>
<stop offset="1" stop-color="#E1EFF8"/>
</linearGradient>
<linearGradient id="paint5_linear_1_1876" x1="197.234" y1="647.518" x2="694.163" y2="-418.168" gradientUnits="userSpaceOnUse">
<stop stop-color="#52BBE8"/>
<stop offset="0.196" stop-color="#69C3EB"/>
<stop offset="0.6037" stop-color="#A3D8F1"/>
<stop offset="1" stop-color="#E1EFF8"/>
</linearGradient>
<linearGradient id="paint6_linear_1_1876" x1="932.91" y1="-619.903" x2="435.982" y2="445.782" gradientUnits="userSpaceOnUse">
<stop stop-color="#52BBE8"/>
<stop offset="0.196" stop-color="#69C3EB"/>
<stop offset="0.6037" stop-color="#A3D8F1"/>
<stop offset="1" stop-color="#E1EFF8"/>
</linearGradient>
<linearGradient id="paint7_linear_1_1876" x1="-632.586" y1="1275.04" x2="-135.658" y2="209.355" gradientUnits="userSpaceOnUse">
<stop stop-color="#52BBE8"/>
<stop offset="0.196" stop-color="#69C3EB"/>
<stop offset="0.6037" stop-color="#A3D8F1"/>
<stop offset="1" stop-color="#E1EFF8"/>
</linearGradient>
<linearGradient id="paint8_linear_1_1876" x1="-360.763" y1="1206.11" x2="136.166" y2="140.429" gradientUnits="userSpaceOnUse">
<stop stop-color="#52BBE8"/>
<stop offset="0.196" stop-color="#69C3EB"/>
<stop offset="0.6037" stop-color="#A3D8F1"/>
<stop offset="1" stop-color="#E1EFF8"/>
</linearGradient>
<linearGradient id="paint9_linear_1_1876" x1="886.508" y1="-641.538" x2="389.579" y2="424.147" gradientUnits="userSpaceOnUse">
<stop stop-color="#52BBE8"/>
<stop offset="0.196" stop-color="#69C3EB"/>
<stop offset="0.6037" stop-color="#A3D8F1"/>
<stop offset="1" stop-color="#E1EFF8"/>
</linearGradient>
<linearGradient id="paint10_linear_1_1876" x1="-413.95" y1="1017.51" x2="82.9779" y2="-48.1708" gradientUnits="userSpaceOnUse">
<stop stop-color="#52BBE8"/>
<stop offset="0.196" stop-color="#69C3EB"/>
<stop offset="0.6037" stop-color="#A3D8F1"/>
<stop offset="1" stop-color="#E1EFF8"/>
</linearGradient>
<linearGradient id="paint11_linear_1_1876" x1="-142.127" y1="948.588" x2="354.801" y2="-117.096" gradientUnits="userSpaceOnUse">
<stop stop-color="#52BBE8"/>
<stop offset="0.196" stop-color="#69C3EB"/>
<stop offset="0.6037" stop-color="#A3D8F1"/>
<stop offset="1" stop-color="#E1EFF8"/>
</linearGradient>
<linearGradient id="paint12_linear_1_1876" x1="767.156" y1="-697.189" x2="270.229" y2="368.493" gradientUnits="userSpaceOnUse">
<stop stop-color="#52BBE8"/>
<stop offset="0.196" stop-color="#69C3EB"/>
<stop offset="0.6037" stop-color="#A3D8F1"/>
<stop offset="1" stop-color="#E1EFF8"/>
</linearGradient>
<linearGradient id="paint13_linear_1_1876" x1="-466.835" y1="829.243" x2="30.0944" y2="-236.443" gradientUnits="userSpaceOnUse">
<stop stop-color="#52BBE8"/>
<stop offset="0.196" stop-color="#69C3EB"/>
<stop offset="0.6037" stop-color="#A3D8F1"/>
<stop offset="1" stop-color="#E1EFF8"/>
</linearGradient>
<linearGradient id="paint14_linear_1_1876" x1="-195.011" y1="760.317" x2="301.918" y2="-305.369" gradientUnits="userSpaceOnUse">
<stop stop-color="#52BBE8"/>
<stop offset="0.196" stop-color="#69C3EB"/>
<stop offset="0.6037" stop-color="#A3D8F1"/>
<stop offset="1" stop-color="#E1EFF8"/>
</linearGradient>
<linearGradient id="paint15_linear_1_1876" x1="1210.35" y1="-490.511" x2="713.433" y2="575.161" gradientUnits="userSpaceOnUse">
<stop stop-color="#52BBE8"/>
<stop offset="0.196" stop-color="#69C3EB"/>
<stop offset="0.6037" stop-color="#A3D8F1"/>
<stop offset="1" stop-color="#E1EFF8"/>
</linearGradient>
<linearGradient id="paint16_linear_1_1876" x1="1635.33" y1="-292.368" x2="1138.39" y2="773.319" gradientUnits="userSpaceOnUse">
<stop stop-color="#52BBE8"/>
<stop offset="0.196" stop-color="#69C3EB"/>
<stop offset="0.6037" stop-color="#A3D8F1"/>
<stop offset="1" stop-color="#E1EFF8"/>
</linearGradient>
<linearGradient id="paint17_linear_1_1876" x1="1089.95" y1="-546.679" x2="593.018" y2="519.01" gradientUnits="userSpaceOnUse">
<stop stop-color="#52BBE8"/>
<stop offset="0.196" stop-color="#69C3EB"/>
<stop offset="0.6037" stop-color="#A3D8F1"/>
<stop offset="1" stop-color="#E1EFF8"/>
</linearGradient>
<linearGradient id="paint18_linear_1_1876" x1="1054.4" y1="-563.244" x2="557.469" y2="502.434" gradientUnits="userSpaceOnUse">
<stop stop-color="#52BBE8"/>
<stop offset="0.196" stop-color="#69C3EB"/>
<stop offset="0.6037" stop-color="#A3D8F1"/>
<stop offset="1" stop-color="#E1EFF8"/>
</linearGradient>
<linearGradient id="paint19_linear_1_1876" x1="1096.83" y1="-543.448" x2="599.908" y2="522.224" gradientUnits="userSpaceOnUse">
<stop stop-color="#52BBE8"/>
<stop offset="0.196" stop-color="#69C3EB"/>
<stop offset="0.6037" stop-color="#A3D8F1"/>
<stop offset="1" stop-color="#E1EFF8"/>
</linearGradient>
<linearGradient id="paint20_linear_1_1876" x1="1174.57" y1="-507.222" x2="677.638" y2="558.466" gradientUnits="userSpaceOnUse">
<stop stop-color="#52BBE8"/>
<stop offset="0.196" stop-color="#69C3EB"/>
<stop offset="0.6037" stop-color="#A3D8F1"/>
<stop offset="1" stop-color="#E1EFF8"/>
</linearGradient>
<linearGradient id="paint21_linear_1_1876" x1="1167.9" y1="-510.339" x2="670.963" y2="555.354" gradientUnits="userSpaceOnUse">
<stop stop-color="#52BBE8"/>
<stop offset="0.196" stop-color="#69C3EB"/>
<stop offset="0.6037" stop-color="#A3D8F1"/>
<stop offset="1" stop-color="#E1EFF8"/>
</linearGradient>
<linearGradient id="paint22_linear_1_1876" x1="962.694" y1="-606.024" x2="465.761" y2="459.671" gradientUnits="userSpaceOnUse">
<stop stop-color="#52BBE8"/>
<stop offset="0.196" stop-color="#69C3EB"/>
<stop offset="0.6037" stop-color="#A3D8F1"/>
<stop offset="1" stop-color="#E1EFF8"/>
</linearGradient>
<linearGradient id="paint23_linear_1_1876" x1="926.602" y1="-622.609" x2="429.436" y2="442.828" gradientUnits="userSpaceOnUse">
<stop stop-color="#52BBE8"/>
<stop offset="0.196" stop-color="#69C3EB"/>
<stop offset="0.6037" stop-color="#A3D8F1"/>
<stop offset="1" stop-color="#E1EFF8"/>
</linearGradient>
<linearGradient id="paint24_linear_1_1876" x1="969.62" y1="-602.784" x2="472.692" y2="462.901" gradientUnits="userSpaceOnUse">
<stop stop-color="#52BBE8"/>
<stop offset="0.196" stop-color="#69C3EB"/>
<stop offset="0.6037" stop-color="#A3D8F1"/>
<stop offset="1" stop-color="#E1EFF8"/>
</linearGradient>
<linearGradient id="paint25_linear_1_1876" x1="1047.43" y1="-566.499" x2="550.501" y2="499.184" gradientUnits="userSpaceOnUse">
<stop stop-color="#52BBE8"/>
<stop offset="0.196" stop-color="#69C3EB"/>
<stop offset="0.6037" stop-color="#A3D8F1"/>
<stop offset="1" stop-color="#E1EFF8"/>
</linearGradient>
<linearGradient id="paint26_linear_1_1876" x1="1076" y1="-553.173" x2="579.078" y2="512.508" gradientUnits="userSpaceOnUse">
<stop stop-color="#52BBE8"/>
<stop offset="0.196" stop-color="#69C3EB"/>
<stop offset="0.6037" stop-color="#A3D8F1"/>
<stop offset="1" stop-color="#E1EFF8"/>
</linearGradient>
<linearGradient id="paint27_linear_1_1876" x1="1040.54" y1="-569.709" x2="543.612" y2="495.971" gradientUnits="userSpaceOnUse">
<stop stop-color="#52BBE8"/>
<stop offset="0.196" stop-color="#69C3EB"/>
<stop offset="0.6037" stop-color="#A3D8F1"/>
<stop offset="1" stop-color="#E1EFF8"/>
</linearGradient>
<linearGradient id="paint28_linear_1_1876" x1="1033.67" y1="-572.932" x2="536.737" y2="492.769" gradientUnits="userSpaceOnUse">
<stop stop-color="#52BBE8"/>
<stop offset="0.196" stop-color="#69C3EB"/>
<stop offset="0.6037" stop-color="#A3D8F1"/>
<stop offset="1" stop-color="#E1EFF8"/>
</linearGradient>
<linearGradient id="paint29_linear_1_1876" x1="1147.18" y1="-519.982" x2="650.254" y2="545.697" gradientUnits="userSpaceOnUse">
<stop stop-color="#52BBE8"/>
<stop offset="0.196" stop-color="#69C3EB"/>
<stop offset="0.6037" stop-color="#A3D8F1"/>
<stop offset="1" stop-color="#E1EFF8"/>
</linearGradient>
<linearGradient id="paint30_linear_1_1876" x1="1182.55" y1="-503.481" x2="685.631" y2="562.189" gradientUnits="userSpaceOnUse">
<stop stop-color="#52BBE8"/>
<stop offset="0.196" stop-color="#69C3EB"/>
<stop offset="0.6037" stop-color="#A3D8F1"/>
<stop offset="1" stop-color="#E1EFF8"/>
</linearGradient>
<linearGradient id="paint31_linear_1_1876" x1="1260.67" y1="-467.07" x2="763.745" y2="598.621" gradientUnits="userSpaceOnUse">
<stop stop-color="#52BBE8"/>
<stop offset="0.196" stop-color="#69C3EB"/>
<stop offset="0.6037" stop-color="#A3D8F1"/>
<stop offset="1" stop-color="#E1EFF8"/>
</linearGradient>
<linearGradient id="paint32_linear_1_1876" x1="1296.05" y1="-450.57" x2="799.119" y2="615.114" gradientUnits="userSpaceOnUse">
<stop stop-color="#52BBE8"/>
<stop offset="0.196" stop-color="#69C3EB"/>
<stop offset="0.6037" stop-color="#A3D8F1"/>
<stop offset="1" stop-color="#E1EFF8"/>
</linearGradient>
<linearGradient id="paint33_linear_1_1876" x1="835.273" y1="-665.448" x2="338.336" y2="400.257" gradientUnits="userSpaceOnUse">
<stop stop-color="#52BBE8"/>
<stop offset="0.196" stop-color="#69C3EB"/>
<stop offset="0.6037" stop-color="#A3D8F1"/>
<stop offset="1" stop-color="#E1EFF8"/>
</linearGradient>
<linearGradient id="paint34_linear_1_1876" x1="799.893" y1="-681.943" x2="302.956" y2="383.759" gradientUnits="userSpaceOnUse">
<stop stop-color="#52BBE8"/>
<stop offset="0.196" stop-color="#69C3EB"/>
<stop offset="0.6037" stop-color="#A3D8F1"/>
<stop offset="1" stop-color="#E1EFF8"/>
</linearGradient>
<linearGradient id="paint35_linear_1_1876" x1="842.112" y1="-662.254" x2="345.177" y2="403.444" gradientUnits="userSpaceOnUse">
<stop stop-color="#52BBE8"/>
<stop offset="0.196" stop-color="#69C3EB"/>
<stop offset="0.6037" stop-color="#A3D8F1"/>
<stop offset="1" stop-color="#E1EFF8"/>
</linearGradient>
<linearGradient id="paint36_linear_1_1876" x1="920.212" y1="-625.822" x2="423.284" y2="439.863" gradientUnits="userSpaceOnUse">
<stop stop-color="#52BBE8"/>
<stop offset="0.196" stop-color="#69C3EB"/>
<stop offset="0.6037" stop-color="#A3D8F1"/>
<stop offset="1" stop-color="#E1EFF8"/>
</linearGradient>
<linearGradient id="paint37_linear_1_1876" x1="913.367" y1="-629.01" x2="416.441" y2="436.67" gradientUnits="userSpaceOnUse">
<stop stop-color="#52BBE8"/>
<stop offset="0.196" stop-color="#69C3EB"/>
<stop offset="0.6037" stop-color="#A3D8F1"/>
<stop offset="1" stop-color="#E1EFF8"/>
</linearGradient>
<linearGradient id="paint38_linear_1_1876" x1="955.587" y1="-609.323" x2="458.66" y2="456.358" gradientUnits="userSpaceOnUse">
<stop stop-color="#52BBE8"/>
<stop offset="0.196" stop-color="#69C3EB"/>
<stop offset="0.6037" stop-color="#A3D8F1"/>
<stop offset="1" stop-color="#E1EFF8"/>
</linearGradient>
<linearGradient id="paint39_linear_1_1876" x1="1069.16" y1="-556.364" x2="572.235" y2="509.318" gradientUnits="userSpaceOnUse">
<stop stop-color="#52BBE8"/>
<stop offset="0.196" stop-color="#69C3EB"/>
<stop offset="0.6037" stop-color="#A3D8F1"/>
<stop offset="1" stop-color="#E1EFF8"/>
</linearGradient>
<linearGradient id="paint40_linear_1_1876" x1="1062.23" y1="-559.595" x2="565.307" y2="506.086" gradientUnits="userSpaceOnUse">
<stop stop-color="#52BBE8"/>
<stop offset="0.196" stop-color="#69C3EB"/>
<stop offset="0.6037" stop-color="#A3D8F1"/>
<stop offset="1" stop-color="#E1EFF8"/>
</linearGradient>
<linearGradient id="paint41_linear_1_1876" x1="1026.66" y1="-576.188" x2="529.729" y2="489.499" gradientUnits="userSpaceOnUse">
<stop stop-color="#52BBE8"/>
<stop offset="0.196" stop-color="#69C3EB"/>
<stop offset="0.6037" stop-color="#A3D8F1"/>
<stop offset="1" stop-color="#E1EFF8"/>
</linearGradient>
<linearGradient id="paint42_linear_1_1876" x1="1253.58" y1="-470.38" x2="756.646" y2="595.314" gradientUnits="userSpaceOnUse">
<stop stop-color="#52BBE8"/>
<stop offset="0.196" stop-color="#69C3EB"/>
<stop offset="0.6037" stop-color="#A3D8F1"/>
<stop offset="1" stop-color="#E1EFF8"/>
</linearGradient>
<linearGradient id="paint43_linear_1_1876" x1="948.745" y1="-612.511" x2="451.82" y2="453.167" gradientUnits="userSpaceOnUse">
<stop stop-color="#52BBE8"/>
<stop offset="0.196" stop-color="#69C3EB"/>
<stop offset="0.6037" stop-color="#A3D8F1"/>
<stop offset="1" stop-color="#E1EFF8"/>
</linearGradient>
<linearGradient id="paint44_linear_1_1876" x1="1140.09" y1="-523.294" x2="643.16" y2="542.389" gradientUnits="userSpaceOnUse">
<stop stop-color="#52BBE8"/>
<stop offset="0.196" stop-color="#69C3EB"/>
<stop offset="0.6037" stop-color="#A3D8F1"/>
<stop offset="1" stop-color="#E1EFF8"/>
</linearGradient>
<linearGradient id="paint45_linear_1_1876" x1="1175.72" y1="-506.672" x2="678.797" y2="559.002" gradientUnits="userSpaceOnUse">
<stop stop-color="#52BBE8"/>
<stop offset="0.196" stop-color="#69C3EB"/>
<stop offset="0.6037" stop-color="#A3D8F1"/>
<stop offset="1" stop-color="#E1EFF8"/>
</linearGradient>
<linearGradient id="paint46_linear_1_1876" x1="1125.99" y1="-476.731" x2="519.465" y2="823.982" gradientUnits="userSpaceOnUse">
<stop stop-color="#52BBE8"/>
<stop offset="0.196" stop-color="#69C3EB"/>
<stop offset="0.6037" stop-color="#A3D8F1"/>
<stop offset="1" stop-color="#E1EFF8"/>
</linearGradient>
<linearGradient id="paint47_linear_1_1876" x1="921.65" y1="-572.013" x2="315.129" y2="728.698" gradientUnits="userSpaceOnUse">
<stop stop-color="#52BBE8"/>
<stop offset="0.196" stop-color="#69C3EB"/>
<stop offset="0.6037" stop-color="#A3D8F1"/>
<stop offset="1" stop-color="#E1EFF8"/>
</linearGradient>
<linearGradient id="paint48_linear_1_1876" x1="818.71" y1="-620.017" x2="212.191" y2="680.69" gradientUnits="userSpaceOnUse">
<stop stop-color="#52BBE8"/>
<stop offset="0.196" stop-color="#69C3EB"/>
<stop offset="0.6037" stop-color="#A3D8F1"/>
<stop offset="1" stop-color="#E1EFF8"/>
</linearGradient>
<linearGradient id="paint49_linear_1_1876" x1="-583.54" y1="1058.65" x2="22.9825" y2="-242.062" gradientUnits="userSpaceOnUse">
<stop stop-color="#52BBE8"/>
<stop offset="0.196" stop-color="#69C3EB"/>
<stop offset="0.6037" stop-color="#A3D8F1"/>
<stop offset="1" stop-color="#E1EFF8"/>
</linearGradient>
<linearGradient id="paint50_linear_1_1876" x1="-329.148" y1="994.146" x2="277.374" y2="-306.569" gradientUnits="userSpaceOnUse">
<stop stop-color="#52BBE8"/>
<stop offset="0.196" stop-color="#69C3EB"/>
<stop offset="0.6037" stop-color="#A3D8F1"/>
<stop offset="1" stop-color="#E1EFF8"/>
</linearGradient>
<linearGradient id="paint51_linear_1_1876" x1="-74.2847" y1="929.52" x2="532.237" y2="-371.193" gradientUnits="userSpaceOnUse">
<stop stop-color="#52BBE8"/>
<stop offset="0.196" stop-color="#69C3EB"/>
<stop offset="0.6037" stop-color="#A3D8F1"/>
<stop offset="1" stop-color="#E1EFF8"/>
</linearGradient>
<linearGradient id="paint52_linear_1_1876" x1="766.351" y1="-644.429" x2="159.83" y2="656.283" gradientUnits="userSpaceOnUse">
<stop stop-color="#52BBE8"/>
<stop offset="0.196" stop-color="#69C3EB"/>
<stop offset="0.6037" stop-color="#A3D8F1"/>
<stop offset="1" stop-color="#E1EFF8"/>
</linearGradient>
<linearGradient id="paint53_linear_1_1876" x1="-378.695" y1="817.556" x2="227.828" y2="-483.159" gradientUnits="userSpaceOnUse">
<stop stop-color="#52BBE8"/>
<stop offset="0.196" stop-color="#69C3EB"/>
<stop offset="0.6037" stop-color="#A3D8F1"/>
<stop offset="1" stop-color="#E1EFF8"/>
</linearGradient>
<linearGradient id="paint54_linear_1_1876" x1="-124.303" y1="753.051" x2="482.219" y2="-547.664" gradientUnits="userSpaceOnUse">
<stop stop-color="#52BBE8"/>
<stop offset="0.196" stop-color="#69C3EB"/>
<stop offset="0.6037" stop-color="#A3D8F1"/>
<stop offset="1" stop-color="#E1EFF8"/>
</linearGradient>
<linearGradient id="paint55_linear_1_1876" x1="1027.81" y1="-522.511" x2="421.289" y2="778.199" gradientUnits="userSpaceOnUse">
<stop stop-color="#52BBE8"/>
<stop offset="0.196" stop-color="#69C3EB"/>
<stop offset="0.6037" stop-color="#A3D8F1"/>
<stop offset="1" stop-color="#E1EFF8"/>
</linearGradient>
<linearGradient id="paint56_linear_1_1876" x1="-755.425" y1="1610.94" x2="-148.903" y2="310.224" gradientUnits="userSpaceOnUse">
<stop stop-color="#52BBE8"/>
<stop offset="0.196" stop-color="#69C3EB"/>
<stop offset="0.6037" stop-color="#A3D8F1"/>
<stop offset="1" stop-color="#E1EFF8"/>
</linearGradient>
<linearGradient id="paint57_linear_1_1876" x1="958.081" y1="-555.025" x2="351.561" y2="745.685" gradientUnits="userSpaceOnUse">
<stop stop-color="#52BBE8"/>
<stop offset="0.196" stop-color="#69C3EB"/>
<stop offset="0.6037" stop-color="#A3D8F1"/>
<stop offset="1" stop-color="#E1EFF8"/>
</linearGradient>
<linearGradient id="paint58_linear_1_1876" x1="-488.388" y1="1296.68" x2="118.133" y2="-4.0343" gradientUnits="userSpaceOnUse">
<stop stop-color="#52BBE8"/>
<stop offset="0.196" stop-color="#69C3EB"/>
<stop offset="0.6037" stop-color="#A3D8F1"/>
<stop offset="1" stop-color="#E1EFF8"/>
</linearGradient>
<linearGradient id="paint59_linear_1_1876" x1="825.39" y1="-616.899" x2="218.869" y2="683.811" gradientUnits="userSpaceOnUse">
<stop stop-color="#52BBE8"/>
<stop offset="0.196" stop-color="#69C3EB"/>
<stop offset="0.6037" stop-color="#A3D8F1"/>
<stop offset="1" stop-color="#E1EFF8"/>
</linearGradient>
<linearGradient id="paint60_linear_1_1876" x1="-552.769" y1="1066.46" x2="53.7526" y2="-234.254" gradientUnits="userSpaceOnUse">
<stop stop-color="#52BBE8"/>
<stop offset="0.196" stop-color="#69C3EB"/>
<stop offset="0.6037" stop-color="#A3D8F1"/>
<stop offset="1" stop-color="#E1EFF8"/>
</linearGradient>
<linearGradient id="paint61_linear_1_1876" x1="1110.16" y1="-484.119" x2="503.631" y2="816.597" gradientUnits="userSpaceOnUse">
<stop stop-color="#52BBE8"/>
<stop offset="0.196" stop-color="#69C3EB"/>
<stop offset="0.6037" stop-color="#A3D8F1"/>
<stop offset="1" stop-color="#E1EFF8"/>
</linearGradient>
<linearGradient id="paint62_linear_1_1876" x1="998.15" y1="-536.357" x2="391.624" y2="764.37" gradientUnits="userSpaceOnUse">
<stop stop-color="#52BBE8"/>
<stop offset="0.196" stop-color="#69C3EB"/>
<stop offset="0.6037" stop-color="#A3D8F1"/>
<stop offset="1" stop-color="#E1EFF8"/>
</linearGradient>
<linearGradient id="paint63_linear_1_1876" x1="954.687" y1="-556.605" x2="348.166" y2="744.104" gradientUnits="userSpaceOnUse">
<stop stop-color="#52BBE8"/>
<stop offset="0.196" stop-color="#69C3EB"/>
<stop offset="0.6037" stop-color="#A3D8F1"/>
<stop offset="1" stop-color="#E1EFF8"/>
</linearGradient>
<linearGradient id="paint64_linear_1_1876" x1="946.207" y1="-560.564" x2="339.685" y2="740.15" gradientUnits="userSpaceOnUse">
<stop stop-color="#52BBE8"/>
<stop offset="0.196" stop-color="#69C3EB"/>
<stop offset="0.6037" stop-color="#A3D8F1"/>
<stop offset="1" stop-color="#E1EFF8"/>
</linearGradient>
<linearGradient id="paint65_linear_1_1876" x1="1084.72" y1="-495.986" x2="478.191" y2="804.737" gradientUnits="userSpaceOnUse">
<stop stop-color="#52BBE8"/>
<stop offset="0.196" stop-color="#69C3EB"/>
<stop offset="0.6037" stop-color="#A3D8F1"/>
<stop offset="1" stop-color="#E1EFF8"/>
</linearGradient>
<linearGradient id="paint66_linear_1_1876" x1="1128.25" y1="-475.674" x2="521.728" y2="825.032" gradientUnits="userSpaceOnUse">
<stop stop-color="#52BBE8"/>
<stop offset="0.196" stop-color="#69C3EB"/>
<stop offset="0.6037" stop-color="#A3D8F1"/>
<stop offset="1" stop-color="#E1EFF8"/>
</linearGradient>
<linearGradient id="paint67_linear_1_1876" x1="1223.3" y1="-431.353" x2="616.776" y2="869.356" gradientUnits="userSpaceOnUse">
<stop stop-color="#52BBE8"/>
<stop offset="0.196" stop-color="#69C3EB"/>
<stop offset="0.6037" stop-color="#A3D8F1"/>
<stop offset="1" stop-color="#E1EFF8"/>
</linearGradient>
<linearGradient id="paint68_linear_1_1876" x1="1266.59" y1="-411.175" x2="660.062" y2="889.547" gradientUnits="userSpaceOnUse">
<stop stop-color="#52BBE8"/>
<stop offset="0.196" stop-color="#69C3EB"/>
<stop offset="0.6037" stop-color="#A3D8F1"/>
<stop offset="1" stop-color="#E1EFF8"/>
</linearGradient>
<linearGradient id="paint69_linear_1_1876" x1="799.548" y1="-628.937" x2="193.033" y2="671.761" gradientUnits="userSpaceOnUse">
<stop stop-color="#52BBE8"/>
<stop offset="0.196" stop-color="#69C3EB"/>
<stop offset="0.6037" stop-color="#A3D8F1"/>
<stop offset="1" stop-color="#E1EFF8"/>
</linearGradient>
<linearGradient id="paint70_linear_1_1876" x1="851.061" y1="-604.922" x2="244.544" y2="695.784" gradientUnits="userSpaceOnUse">
<stop stop-color="#52BBE8"/>
<stop offset="0.196" stop-color="#69C3EB"/>
<stop offset="0.6037" stop-color="#A3D8F1"/>
<stop offset="1" stop-color="#E1EFF8"/>
</linearGradient>
<linearGradient id="paint71_linear_1_1876" x1="989.643" y1="-540.286" x2="383.133" y2="760.401" gradientUnits="userSpaceOnUse">
<stop stop-color="#52BBE8"/>
<stop offset="0.196" stop-color="#69C3EB"/>
<stop offset="0.6037" stop-color="#A3D8F1"/>
<stop offset="1" stop-color="#E1EFF8"/>
</linearGradient>
<linearGradient id="paint72_linear_1_1876" x1="981.137" y1="-544.274" x2="374.615" y2="756.438" gradientUnits="userSpaceOnUse">
<stop stop-color="#52BBE8"/>
<stop offset="0.196" stop-color="#69C3EB"/>
<stop offset="0.6037" stop-color="#A3D8F1"/>
<stop offset="1" stop-color="#E1EFF8"/>
</linearGradient>
<linearGradient id="paint73_linear_1_1876" x1="937.725" y1="-564.52" x2="331.201" y2="736.196" gradientUnits="userSpaceOnUse">
<stop stop-color="#52BBE8"/>
<stop offset="0.196" stop-color="#69C3EB"/>
<stop offset="0.6037" stop-color="#A3D8F1"/>
<stop offset="1" stop-color="#E1EFF8"/>
</linearGradient>
<linearGradient id="paint74_linear_1_1876" x1="1214.82" y1="-435.309" x2="608.298" y2="865.403" gradientUnits="userSpaceOnUse">
<stop stop-color="#52BBE8"/>
<stop offset="0.196" stop-color="#69C3EB"/>
<stop offset="0.6037" stop-color="#A3D8F1"/>
<stop offset="1" stop-color="#E1EFF8"/>
</linearGradient>
<linearGradient id="paint75_linear_1_1876" x1="842.828" y1="-608.75" x2="236.316" y2="691.942" gradientUnits="userSpaceOnUse">
<stop stop-color="#52BBE8"/>
<stop offset="0.196" stop-color="#69C3EB"/>
<stop offset="0.6037" stop-color="#A3D8F1"/>
<stop offset="1" stop-color="#E1EFF8"/>
</linearGradient>
<linearGradient id="paint76_linear_1_1876" x1="791.074" y1="-632.902" x2="184.552" y2="667.812" gradientUnits="userSpaceOnUse">
<stop stop-color="#52BBE8"/>
<stop offset="0.196" stop-color="#69C3EB"/>
<stop offset="0.6037" stop-color="#A3D8F1"/>
<stop offset="1" stop-color="#E1EFF8"/>
</linearGradient>
<linearGradient id="paint77_linear_1_1876" x1="1076.48" y1="-499.817" x2="469.961" y2="800.898" gradientUnits="userSpaceOnUse">
<stop stop-color="#52BBE8"/>
<stop offset="0.196" stop-color="#69C3EB"/>
<stop offset="0.6037" stop-color="#A3D8F1"/>
<stop offset="1" stop-color="#E1EFF8"/>
</linearGradient>
<linearGradient id="paint78_linear_1_1876" x1="1119.77" y1="-479.629" x2="513.248" y2="821.08" gradientUnits="userSpaceOnUse">
<stop stop-color="#52BBE8"/>
<stop offset="0.196" stop-color="#69C3EB"/>
<stop offset="0.6037" stop-color="#A3D8F1"/>
<stop offset="1" stop-color="#E1EFF8"/>
</linearGradient>
<linearGradient id="paint79_linear_1_1876" x1="1111.29" y1="-483.589" x2="504.762" y2="817.129" gradientUnits="userSpaceOnUse">
<stop stop-color="#52BBE8"/>
<stop offset="0.196" stop-color="#69C3EB"/>
<stop offset="0.6037" stop-color="#A3D8F1"/>
<stop offset="1" stop-color="#E1EFF8"/>
</linearGradient>
<linearGradient id="paint80_linear_1_1876" x1="1068" y1="-503.771" x2="461.475" y2="796.94" gradientUnits="userSpaceOnUse">
<stop stop-color="#52BBE8"/>
<stop offset="0.196" stop-color="#69C3EB"/>
<stop offset="0.6037" stop-color="#A3D8F1"/>
<stop offset="1" stop-color="#E1EFF8"/>
</linearGradient>
<linearGradient id="paint81_linear_1_1876" x1="695.967" y1="-677.249" x2="89.4458" y2="623.463" gradientUnits="userSpaceOnUse">
<stop stop-color="#52BBE8"/>
<stop offset="0.196" stop-color="#69C3EB"/>
<stop offset="0.6037" stop-color="#A3D8F1"/>
<stop offset="1" stop-color="#E1EFF8"/>
</linearGradient>
<linearGradient id="paint82_linear_1_1876" x1="834.362" y1="-612.723" x2="227.834" y2="688.002" gradientUnits="userSpaceOnUse">
<stop stop-color="#52BBE8"/>
<stop offset="0.196" stop-color="#69C3EB"/>
<stop offset="0.6037" stop-color="#A3D8F1"/>
<stop offset="1" stop-color="#E1EFF8"/>
</linearGradient>
<linearGradient id="paint83_linear_1_1876" x1="929.457" y1="-568.367" x2="322.939" y2="732.337" gradientUnits="userSpaceOnUse">
<stop stop-color="#52BBE8"/>
<stop offset="0.196" stop-color="#69C3EB"/>
<stop offset="0.6037" stop-color="#A3D8F1"/>
<stop offset="1" stop-color="#E1EFF8"/>
</linearGradient>
<linearGradient id="paint84_linear_1_1876" x1="972.694" y1="-548.212" x2="366.173" y2="752.5" gradientUnits="userSpaceOnUse">
<stop stop-color="#52BBE8"/>
<stop offset="0.196" stop-color="#69C3EB"/>
<stop offset="0.6037" stop-color="#A3D8F1"/>
<stop offset="1" stop-color="#E1EFF8"/>
</linearGradient>
<clipPath id="clip0_1_1876">
<rect width="1440" height="754" fill="white" transform="translate(-3)"/>
</clipPath>
</defs>
</svg>
